<svg width="510" height="532" viewBox="0 0 510 532" fill="none" xmlns="http://www.w3.org/2000/svg">
<rect width="510" height="532" rx="32" fill="url(#paint0_linear_2304_218)"/>
<path d="M50.4474 40.8182H55.983V57.821C55.983 59.7301 55.527 61.4006 54.6151 62.8324C53.7116 64.2642 52.446 65.3807 50.8182 66.1818C49.1903 66.9744 47.294 67.3707 45.1293 67.3707C42.956 67.3707 41.0554 66.9744 39.4276 66.1818C37.7997 65.3807 36.5341 64.2642 35.6307 62.8324C34.7273 61.4006 34.2756 59.7301 34.2756 57.821V40.8182H39.8111V57.348C39.8111 58.3452 40.0284 59.2315 40.4631 60.0071C40.9063 60.7827 41.5284 61.392 42.3295 61.8352C43.1307 62.2784 44.0639 62.5 45.1293 62.5C46.2031 62.5 47.1364 62.2784 47.929 61.8352C48.7301 61.392 49.348 60.7827 49.7827 60.0071C50.2259 59.2315 50.4474 58.3452 50.4474 57.348V40.8182ZM60.435 74.3636V47.3636H65.8043V50.6619H66.0472C66.2859 50.1335 66.631 49.5966 67.0827 49.0511C67.543 48.4972 68.1396 48.0369 68.8725 47.6705C69.614 47.2955 70.5344 47.108 71.6339 47.108C73.0657 47.108 74.3867 47.483 75.5969 48.233C76.8072 48.9744 77.7745 50.0952 78.4989 51.5952C79.2234 53.0866 79.5856 54.9574 79.5856 57.2074C79.5856 59.3977 79.2319 61.2472 78.5245 62.7557C77.8256 64.2557 76.8711 65.3935 75.6609 66.169C74.4592 66.9361 73.1126 67.3196 71.6211 67.3196C70.5643 67.3196 69.6651 67.1449 68.9237 66.7955C68.1907 66.446 67.5898 66.0071 67.1211 65.4787C66.6523 64.9418 66.2944 64.4006 66.0472 63.8551H65.881V74.3636H60.435ZM65.766 57.1818C65.766 58.3494 65.9279 59.3679 66.2518 60.2372C66.5756 61.1065 67.0444 61.7841 67.658 62.2699C68.2717 62.7472 69.0174 62.9858 69.8952 62.9858C70.7816 62.9858 71.5316 62.7429 72.1452 62.2571C72.7589 61.7628 73.2234 61.081 73.5387 60.2116C73.8626 59.3338 74.0245 58.3239 74.0245 57.1818C74.0245 56.0483 73.8668 55.0511 73.5515 54.1903C73.2362 53.3295 72.7717 52.6562 72.158 52.1705C71.5444 51.6847 70.7901 51.4418 69.8952 51.4418C69.0089 51.4418 68.2589 51.6761 67.6452 52.1449C67.0401 52.6136 66.5756 53.2784 66.2518 54.1392C65.9279 55 65.766 56.0142 65.766 57.1818ZM88.6623 40.8182V67H83.2163V40.8182H88.6623ZM101.897 67.3835C99.9112 67.3835 98.1939 66.9616 96.745 66.1179C95.3047 65.2656 94.1925 64.081 93.4084 62.5639C92.6243 61.0384 92.2322 59.2699 92.2322 57.2585C92.2322 55.2301 92.6243 53.4574 93.4084 51.9403C94.1925 50.4148 95.3047 49.2301 96.745 48.3864C98.1939 47.5341 99.9112 47.108 101.897 47.108C103.883 47.108 105.596 47.5341 107.036 48.3864C108.485 49.2301 109.602 50.4148 110.386 51.9403C111.17 53.4574 111.562 55.2301 111.562 57.2585C111.562 59.2699 111.17 61.0384 110.386 62.5639C109.602 64.081 108.485 65.2656 107.036 66.1179C105.596 66.9616 103.883 67.3835 101.897 67.3835ZM101.923 63.1648C102.826 63.1648 103.58 62.9091 104.185 62.3977C104.79 61.8778 105.246 61.1705 105.553 60.2756C105.869 59.3807 106.026 58.3622 106.026 57.2202C106.026 56.0781 105.869 55.0597 105.553 54.1648C105.246 53.2699 104.79 52.5625 104.185 52.0426C103.58 51.5227 102.826 51.2628 101.923 51.2628C101.011 51.2628 100.244 51.5227 99.6214 52.0426C99.0078 52.5625 98.5433 53.2699 98.228 54.1648C97.9212 55.0597 97.7678 56.0781 97.7678 57.2202C97.7678 58.3622 97.9212 59.3807 98.228 60.2756C98.5433 61.1705 99.0078 61.8778 99.6214 62.3977C100.244 62.9091 101.011 63.1648 101.923 63.1648ZM120.702 67.3707C119.45 67.3707 118.333 67.1534 117.353 66.7188C116.373 66.2756 115.597 65.6236 115.026 64.7628C114.464 63.8935 114.183 62.8111 114.183 61.5156C114.183 60.4247 114.383 59.5085 114.783 58.767C115.184 58.0256 115.729 57.429 116.42 56.9773C117.11 56.5256 117.894 56.1847 118.772 55.9545C119.658 55.7244 120.587 55.5625 121.559 55.4688C122.701 55.3494 123.621 55.2386 124.32 55.1364C125.019 55.0256 125.526 54.8636 125.842 54.6506C126.157 54.4375 126.315 54.1222 126.315 53.7045V53.6278C126.315 52.8182 126.059 52.1918 125.548 51.7486C125.045 51.3054 124.329 51.0838 123.4 51.0838C122.42 51.0838 121.64 51.3011 121.06 51.7358C120.481 52.1619 120.097 52.6989 119.91 53.3466L114.873 52.9375C115.129 51.7443 115.631 50.7131 116.381 49.8438C117.131 48.9659 118.099 48.2926 119.283 47.8239C120.477 47.3466 121.857 47.108 123.425 47.108C124.516 47.108 125.56 47.2358 126.558 47.4915C127.563 47.7472 128.454 48.1435 129.229 48.6804C130.013 49.2173 130.631 49.9077 131.083 50.7514C131.535 51.5866 131.761 52.5881 131.761 53.7557V67H126.596V64.277H126.442C126.127 64.8906 125.705 65.4318 125.177 65.9006C124.648 66.3608 124.013 66.723 123.272 66.9872C122.531 67.2429 121.674 67.3707 120.702 67.3707ZM122.262 63.6122C123.063 63.6122 123.771 63.4545 124.384 63.1392C124.998 62.8153 125.479 62.3807 125.829 61.8352C126.178 61.2898 126.353 60.6719 126.353 59.9815V57.8977C126.183 58.0085 125.948 58.1108 125.65 58.2045C125.36 58.2898 125.032 58.3707 124.665 58.4474C124.299 58.5156 123.933 58.5795 123.566 58.6392C123.2 58.6903 122.867 58.7372 122.569 58.7798C121.93 58.8736 121.371 59.0227 120.894 59.2273C120.417 59.4318 120.046 59.7088 119.782 60.0582C119.518 60.3991 119.386 60.8253 119.386 61.3366C119.386 62.0781 119.654 62.6449 120.191 63.0369C120.737 63.4205 121.427 63.6122 122.262 63.6122ZM143.222 67.3196C141.73 67.3196 140.379 66.9361 139.169 66.169C137.967 65.3935 137.013 64.2557 136.305 62.7557C135.607 61.2472 135.257 59.3977 135.257 57.2074C135.257 54.9574 135.619 53.0866 136.344 51.5952C137.068 50.0952 138.031 48.9744 139.233 48.233C140.443 47.483 141.768 47.108 143.209 47.108C144.308 47.108 145.224 47.2955 145.957 47.6705C146.699 48.0369 147.295 48.4972 147.747 49.0511C148.207 49.5966 148.557 50.1335 148.795 50.6619H148.962V40.8182H154.395V67H149.026V63.8551H148.795C148.54 64.4006 148.178 64.9418 147.709 65.4787C147.249 66.0071 146.648 66.446 145.906 66.7955C145.173 67.1449 144.278 67.3196 143.222 67.3196ZM144.947 62.9858C145.825 62.9858 146.567 62.7472 147.172 62.2699C147.786 61.7841 148.254 61.1065 148.578 60.2372C148.911 59.3679 149.077 58.3494 149.077 57.1818C149.077 56.0142 148.915 55 148.591 54.1392C148.267 53.2784 147.798 52.6136 147.185 52.1449C146.571 51.6761 145.825 51.4418 144.947 51.4418C144.053 51.4418 143.298 51.6847 142.685 52.1705C142.071 52.6562 141.607 53.3295 141.291 54.1903C140.976 55.0511 140.818 56.0483 140.818 57.1818C140.818 58.3239 140.976 59.3338 141.291 60.2116C141.615 61.081 142.08 61.7628 142.685 62.2571C143.298 62.7429 144.053 62.9858 144.947 62.9858ZM171.454 67.317C170.459 67.317 169.562 67.1398 168.764 66.7852C167.973 66.4239 167.346 65.892 166.882 65.1898C166.426 64.4875 166.197 63.6216 166.197 62.592C166.197 61.7057 166.361 60.9727 166.688 60.3932C167.015 59.8136 167.462 59.35 168.028 59.0023C168.594 58.6545 169.231 58.392 169.94 58.2148C170.656 58.0307 171.396 57.8977 172.16 57.8159C173.08 57.7205 173.827 57.6352 174.399 57.5602C174.972 57.4784 175.388 57.3557 175.647 57.192C175.913 57.0216 176.046 56.7591 176.046 56.4045V56.3432C176.046 55.5727 175.818 54.9761 175.361 54.5534C174.904 54.1307 174.246 53.9193 173.387 53.9193C172.48 53.9193 171.761 54.117 171.229 54.5125C170.704 54.908 170.349 55.375 170.165 55.9136L166.709 55.4227C166.981 54.4682 167.431 53.6705 168.059 53.0295C168.686 52.3818 169.453 51.8977 170.36 51.5773C171.266 51.25 172.269 51.0864 173.366 51.0864C174.123 51.0864 174.877 51.175 175.627 51.3523C176.377 51.5295 177.062 51.8227 177.682 52.2318C178.303 52.6341 178.801 53.183 179.176 53.8784C179.557 54.5739 179.748 55.4432 179.748 56.4864V67H176.189V64.842H176.066C175.841 65.2784 175.524 65.6875 175.115 66.0693C174.713 66.4443 174.205 66.7477 173.591 66.9795C172.985 67.2045 172.272 67.317 171.454 67.317ZM172.415 64.5966C173.159 64.5966 173.803 64.45 174.348 64.1568C174.894 63.8568 175.313 63.4614 175.606 62.9705C175.906 62.4795 176.056 61.9443 176.056 61.3648V59.5136C175.94 59.6091 175.743 59.6977 175.463 59.7795C175.19 59.8614 174.884 59.933 174.543 59.9943C174.202 60.0557 173.864 60.1102 173.53 60.158C173.196 60.2057 172.906 60.2466 172.661 60.2807C172.109 60.3557 171.614 60.4784 171.178 60.6489C170.741 60.8193 170.397 61.058 170.145 61.3648C169.893 61.6648 169.766 62.0534 169.766 62.5307C169.766 63.2125 170.015 63.7273 170.513 64.075C171.011 64.4227 171.645 64.5966 172.415 64.5966ZM187.173 57.7955V67H183.471V51.2909H187.01V53.9602H187.194C187.555 53.0807 188.131 52.3818 188.922 51.8636C189.72 51.3455 190.705 51.0864 191.878 51.0864C192.962 51.0864 193.906 51.3182 194.711 51.7818C195.522 52.2455 196.149 52.917 196.593 53.7966C197.043 54.6761 197.264 55.7432 197.257 56.9977V67H193.555V57.5705C193.555 56.5205 193.282 55.6989 192.737 55.1057C192.198 54.5125 191.452 54.2159 190.497 54.2159C189.849 54.2159 189.273 54.3591 188.769 54.6455C188.271 54.925 187.879 55.3307 187.593 55.8625C187.313 56.3943 187.173 57.0386 187.173 57.7955ZM206.851 67.2761C205.616 67.2761 204.512 66.9591 203.537 66.325C202.562 65.6909 201.791 64.7705 201.226 63.5636C200.66 62.3568 200.377 60.8909 200.377 59.1659C200.377 57.4205 200.663 55.9477 201.236 54.7477C201.815 53.5409 202.596 52.6307 203.578 52.017C204.56 51.3966 205.654 51.0864 206.861 51.0864C207.781 51.0864 208.538 51.2432 209.131 51.5568C209.724 51.8636 210.195 52.2352 210.543 52.6716C210.89 53.1011 211.16 53.5068 211.351 53.8886H211.504V46.0545H215.216V67H211.576V64.525H211.351C211.16 64.9068 210.884 65.3125 210.522 65.742C210.161 66.1648 209.684 66.5261 209.09 66.8261C208.497 67.1261 207.751 67.2761 206.851 67.2761ZM207.884 64.2386C208.668 64.2386 209.336 64.0273 209.888 63.6045C210.44 63.175 210.86 62.5784 211.146 61.8148C211.432 61.0511 211.576 60.1614 211.576 59.1455C211.576 58.1295 211.432 57.2466 211.146 56.4966C210.866 55.7466 210.451 55.1636 209.898 54.7477C209.353 54.3318 208.681 54.1239 207.884 54.1239C207.059 54.1239 206.37 54.3386 205.818 54.7682C205.265 55.1977 204.849 55.7909 204.57 56.5477C204.29 57.3045 204.151 58.1705 204.151 59.1455C204.151 60.1273 204.29 61.0034 204.57 61.7739C204.856 62.5375 205.276 63.1409 205.828 63.5841C206.387 64.0205 207.072 64.2386 207.884 64.2386ZM37.1443 111L32.7057 95.2909H36.4795L39.2409 106.336H39.3841L42.2068 95.2909H45.9398L48.7625 106.275H48.9159L51.6364 95.2909H55.4205L50.9716 111H47.1159L44.1705 100.384H43.9557L41.0102 111H37.1443ZM64.5099 111.307C62.9349 111.307 61.5747 110.98 60.4293 110.325C59.2906 109.664 58.4145 108.73 57.8009 107.523C57.1872 106.309 56.8804 104.881 56.8804 103.237C56.8804 101.622 57.1872 100.203 57.8009 98.983C58.4213 97.7557 59.2872 96.8011 60.3986 96.1193C61.5099 95.4307 62.8156 95.0864 64.3156 95.0864C65.2838 95.0864 66.1974 95.2432 67.0565 95.5568C67.9224 95.8636 68.6861 96.3409 69.3474 96.9886C70.0156 97.6364 70.5406 98.4614 70.9224 99.4636C71.3043 100.459 71.4952 101.645 71.4952 103.023V104.158H58.619V101.662H67.9463C67.9395 100.953 67.7861 100.323 67.4861 99.7705C67.1861 99.2114 66.7668 98.7716 66.2281 98.4511C65.6963 98.1307 65.0759 97.9705 64.3668 97.9705C63.6099 97.9705 62.9452 98.1545 62.3724 98.5227C61.7997 98.8841 61.3531 99.3614 61.0327 99.9545C60.719 100.541 60.5588 101.185 60.552 101.887V104.066C60.552 104.98 60.719 105.764 61.0531 106.418C61.3872 107.066 61.8543 107.564 62.4543 107.911C63.0543 108.252 63.7565 108.423 64.5611 108.423C65.0997 108.423 65.5872 108.348 66.0236 108.198C66.4599 108.041 66.8384 107.812 67.1588 107.512C67.4793 107.212 67.7213 106.841 67.8849 106.398L71.3418 106.786C71.1236 107.7 70.7077 108.498 70.094 109.18C69.4872 109.855 68.7099 110.38 67.7622 110.755C66.8145 111.123 65.7304 111.307 64.5099 111.307ZM85.0131 111L80.5744 95.2909H84.3483L87.1097 106.336H87.2528L90.0756 95.2909H93.8085L96.6313 106.275H96.7847L99.5051 95.2909H103.289L98.8403 111H94.9847L92.0392 100.384H91.8244L88.879 111H85.0131ZM105.874 111V95.2909H109.576V111H105.874ZM107.736 93.0614C107.149 93.0614 106.645 92.867 106.222 92.4784C105.799 92.083 105.588 91.6091 105.588 91.0568C105.588 90.4977 105.799 90.0239 106.222 89.6352C106.645 89.2398 107.149 89.042 107.736 89.042C108.329 89.042 108.833 89.2398 109.249 89.6352C109.672 90.0239 109.883 90.4977 109.883 91.0568C109.883 91.6091 109.672 92.083 109.249 92.4784C108.833 92.867 108.329 93.0614 107.736 93.0614ZM117.086 90.0545V111H113.384V90.0545H117.086ZM124.595 90.0545V111H120.893V90.0545H124.595ZM150.966 92.6676C150.88 91.7301 150.501 91.0014 149.828 90.4815C149.163 89.9531 148.213 89.6889 146.977 89.6889C146.159 89.6889 145.477 89.7955 144.931 90.0085C144.386 90.2216 143.977 90.5156 143.704 90.8906C143.431 91.2571 143.291 91.679 143.282 92.1562C143.265 92.5483 143.342 92.8935 143.512 93.1918C143.691 93.4901 143.947 93.7543 144.279 93.9844C144.62 94.206 145.029 94.402 145.507 94.5724C145.984 94.7429 146.521 94.892 147.118 95.0199L149.368 95.5312C150.663 95.8125 151.805 96.1875 152.794 96.6562C153.791 97.125 154.626 97.6832 155.299 98.331C155.981 98.9787 156.497 99.7244 156.846 100.568C157.196 101.412 157.375 102.358 157.383 103.406C157.375 105.06 156.957 106.479 156.13 107.663C155.304 108.848 154.115 109.756 152.564 110.386C151.021 111.017 149.159 111.332 146.977 111.332C144.787 111.332 142.877 111.004 141.25 110.348C139.622 109.692 138.356 108.695 137.453 107.357C136.549 106.018 136.085 104.327 136.059 102.281H142.119C142.17 103.125 142.396 103.828 142.797 104.391C143.197 104.953 143.747 105.379 144.446 105.669C145.153 105.959 145.971 106.104 146.9 106.104C147.752 106.104 148.477 105.989 149.074 105.759C149.679 105.528 150.143 105.209 150.467 104.8C150.791 104.391 150.957 103.922 150.966 103.393C150.957 102.899 150.804 102.477 150.505 102.128C150.207 101.77 149.747 101.463 149.125 101.207C148.511 100.943 147.727 100.7 146.772 100.479L144.037 99.8395C141.77 99.3196 139.984 98.4801 138.68 97.321C137.376 96.1534 136.728 94.5767 136.737 92.5909C136.728 90.9716 137.163 89.5526 138.041 88.3338C138.919 87.1151 140.133 86.1648 141.684 85.483C143.235 84.8011 145.004 84.4602 146.99 84.4602C149.018 84.4602 150.778 84.8054 152.27 85.4957C153.77 86.1776 154.933 87.1364 155.76 88.3722C156.586 89.608 157.008 91.0398 157.025 92.6676H150.966ZM173.248 102.524V91.3636H179.487V111H173.529V107.344H173.325C172.89 108.545 172.149 109.5 171.101 110.207C170.061 110.906 168.804 111.256 167.329 111.256C165.991 111.256 164.815 110.949 163.801 110.335C162.787 109.722 161.998 108.865 161.436 107.766C160.873 106.658 160.588 105.362 160.579 103.879V91.3636H166.831V102.652C166.839 103.717 167.12 104.557 167.674 105.17C168.228 105.784 168.983 106.091 169.937 106.091C170.559 106.091 171.118 105.955 171.612 105.682C172.115 105.401 172.511 104.996 172.801 104.467C173.099 103.93 173.248 103.283 173.248 102.524ZM183.466 111V91.3636H189.411V94.9688H189.628C190.037 93.7756 190.727 92.8338 191.699 92.1435C192.67 91.4531 193.83 91.108 195.176 91.108C196.54 91.108 197.707 91.4574 198.679 92.1562C199.651 92.8551 200.268 93.7926 200.533 94.9688H200.737C201.104 93.8011 201.82 92.8679 202.885 92.169C203.95 91.4616 205.207 91.108 206.656 91.108C208.514 91.108 210.023 91.7045 211.182 92.8977C212.341 94.0824 212.92 95.7102 212.92 97.7812V111H206.669V99.2131C206.669 98.233 206.418 97.4872 205.915 96.9759C205.412 96.456 204.76 96.196 203.959 96.196C203.098 96.196 202.42 96.4773 201.926 97.0398C201.44 97.5937 201.197 98.3395 201.197 99.277V111H195.189V99.1491C195.189 98.2372 194.942 97.517 194.447 96.9886C193.953 96.4602 193.301 96.196 192.491 96.196C191.946 96.196 191.464 96.3281 191.047 96.5923C190.629 96.848 190.301 97.2145 190.062 97.6918C189.832 98.169 189.717 98.7315 189.717 99.3793V111H183.466ZM216.794 111V91.3636H222.739V94.9688H222.956C223.365 93.7756 224.055 92.8338 225.027 92.1435C225.999 91.4531 227.158 91.108 228.504 91.108C229.868 91.108 231.036 91.4574 232.007 92.1562C232.979 92.8551 233.597 93.7926 233.861 94.9688H234.065C234.432 93.8011 235.148 92.8679 236.213 92.169C237.278 91.4616 238.536 91.108 239.984 91.108C241.842 91.108 243.351 91.7045 244.51 92.8977C245.669 94.0824 246.249 95.7102 246.249 97.7812V111H239.997V99.2131C239.997 98.233 239.746 97.4872 239.243 96.9759C238.74 96.456 238.088 96.196 237.287 96.196C236.426 96.196 235.749 96.4773 235.254 97.0398C234.768 97.5937 234.526 98.3395 234.526 99.277V111H228.517V99.1491C228.517 98.2372 228.27 97.517 227.776 96.9886C227.281 96.4602 226.629 96.196 225.82 96.196C225.274 96.196 224.793 96.3281 224.375 96.5923C223.957 96.848 223.629 97.2145 223.391 97.6918C223.161 98.169 223.045 98.7315 223.045 99.3793V111H216.794ZM255.658 111.332C254.405 111.332 253.293 111.124 252.321 110.706C251.358 110.28 250.595 109.641 250.033 108.788C249.479 107.928 249.202 106.849 249.202 105.554C249.202 104.463 249.393 103.543 249.777 102.793C250.161 102.043 250.689 101.433 251.362 100.964C252.036 100.496 252.811 100.142 253.689 99.9034C254.567 99.6562 255.504 99.4901 256.501 99.4048C257.618 99.3026 258.517 99.196 259.199 99.0852C259.881 98.9659 260.375 98.7997 260.682 98.5866C260.997 98.3651 261.155 98.054 261.155 97.6534V97.5895C261.155 96.9332 260.929 96.4261 260.477 96.0682C260.026 95.7102 259.416 95.5312 258.649 95.5312C257.822 95.5312 257.158 95.7102 256.655 96.0682C256.152 96.4261 255.832 96.9205 255.696 97.5511L249.93 97.3466C250.101 96.1534 250.54 95.0881 251.247 94.1506C251.963 93.2045 252.943 92.4631 254.188 91.9261C255.44 91.3807 256.945 91.108 258.7 91.108C259.953 91.108 261.108 91.2571 262.165 91.5554C263.222 91.8452 264.142 92.2713 264.926 92.8338C265.71 93.3878 266.315 94.0696 266.741 94.8793C267.176 95.6889 267.393 96.6136 267.393 97.6534V111H261.513V108.264H261.359C261.01 108.929 260.563 109.491 260.017 109.952C259.48 110.412 258.845 110.757 258.112 110.987C257.388 111.217 256.57 111.332 255.658 111.332ZM257.588 107.241C258.261 107.241 258.866 107.105 259.403 106.832C259.949 106.56 260.384 106.185 260.707 105.707C261.031 105.222 261.193 104.659 261.193 104.02V102.153C261.014 102.247 260.797 102.332 260.541 102.409C260.294 102.486 260.021 102.558 259.723 102.626C259.425 102.695 259.118 102.754 258.803 102.805C258.487 102.857 258.185 102.903 257.895 102.946C257.307 103.04 256.804 103.185 256.386 103.381C255.977 103.577 255.662 103.832 255.44 104.148C255.227 104.455 255.121 104.821 255.121 105.247C255.121 105.895 255.351 106.389 255.811 106.73C256.28 107.071 256.872 107.241 257.588 107.241ZM271.216 111V91.3636H277.288V94.9432H277.493C277.851 93.6477 278.435 92.6847 279.244 92.054C280.054 91.4148 280.996 91.0952 282.07 91.0952C282.359 91.0952 282.658 91.1165 282.964 91.1591C283.271 91.1932 283.557 91.2486 283.821 91.3253V96.7585C283.523 96.6562 283.131 96.5753 282.645 96.5156C282.168 96.456 281.741 96.4261 281.366 96.4261C280.625 96.4261 279.956 96.5923 279.359 96.9247C278.771 97.2486 278.307 97.7045 277.966 98.2926C277.634 98.8722 277.467 99.554 277.467 100.338V111H271.216ZM286.368 111V91.3636H292.62V111H286.368ZM289.5 89.0753C288.623 89.0753 287.868 88.7855 287.238 88.206C286.607 87.6179 286.292 86.9105 286.292 86.0838C286.292 85.2656 286.607 84.5668 287.238 83.9872C287.868 83.3991 288.623 83.1051 289.5 83.1051C290.387 83.1051 291.141 83.3991 291.763 83.9872C292.394 84.5668 292.709 85.2656 292.709 86.0838C292.709 86.9105 292.394 87.6179 291.763 88.206C291.141 88.7855 290.387 89.0753 289.5 89.0753ZM305.778 111.371C303.724 111.371 301.951 110.966 300.46 110.156C298.977 109.338 297.835 108.175 297.033 106.666C296.241 105.149 295.844 103.347 295.844 101.259C295.844 99.2301 296.245 97.4574 297.046 95.9403C297.847 94.4148 298.977 93.2301 300.434 92.3864C301.891 91.5341 303.609 91.108 305.586 91.108C306.984 91.108 308.262 91.3253 309.421 91.7599C310.58 92.1946 311.582 92.8381 312.425 93.6903C313.269 94.5426 313.925 95.5952 314.394 96.848C314.863 98.0923 315.097 99.5199 315.097 101.131V102.69H298.031V99.0597H309.281C309.272 98.3949 309.114 97.8026 308.808 97.2827C308.501 96.7628 308.079 96.358 307.542 96.0682C307.013 95.7699 306.404 95.6207 305.714 95.6207C305.015 95.6207 304.388 95.7784 303.835 96.0938C303.281 96.4006 302.842 96.8224 302.518 97.3594C302.194 97.8878 302.023 98.4886 302.006 99.1619V102.857C302.006 103.658 302.164 104.361 302.479 104.966C302.795 105.562 303.242 106.027 303.822 106.359C304.401 106.692 305.092 106.858 305.893 106.858C306.447 106.858 306.95 106.781 307.401 106.628C307.853 106.474 308.241 106.249 308.565 105.95C308.888 105.652 309.131 105.286 309.293 104.851L315.033 105.017C314.795 106.304 314.271 107.425 313.461 108.379C312.66 109.325 311.607 110.062 310.303 110.591C308.999 111.111 307.491 111.371 305.778 111.371ZM335.434 97.3594L329.694 97.5128C329.634 97.1037 329.472 96.7415 329.208 96.4261C328.944 96.1023 328.598 95.8509 328.172 95.6719C327.755 95.4844 327.269 95.3906 326.715 95.3906C325.99 95.3906 325.373 95.5355 324.861 95.8253C324.358 96.1151 324.111 96.5071 324.12 97.0014C324.111 97.3849 324.265 97.7173 324.58 97.9986C324.904 98.2798 325.479 98.5057 326.306 98.6761L330.09 99.392C332.05 99.767 333.507 100.389 334.462 101.259C335.425 102.128 335.911 103.278 335.919 104.71C335.911 106.057 335.51 107.229 334.718 108.226C333.934 109.223 332.86 109.999 331.496 110.553C330.132 111.098 328.573 111.371 326.817 111.371C324.013 111.371 321.801 110.795 320.182 109.645C318.571 108.486 317.651 106.935 317.421 104.991L323.596 104.838C323.732 105.554 324.086 106.099 324.657 106.474C325.228 106.849 325.956 107.037 326.843 107.037C327.644 107.037 328.296 106.888 328.799 106.589C329.301 106.291 329.557 105.895 329.566 105.401C329.557 104.957 329.361 104.604 328.978 104.339C328.594 104.067 327.993 103.854 327.175 103.7L323.749 103.048C321.78 102.69 320.314 102.03 319.351 101.067C318.388 100.095 317.911 98.8594 317.919 97.3594C317.911 96.0469 318.26 94.9261 318.968 93.9972C319.675 93.0597 320.681 92.3438 321.985 91.8494C323.289 91.3551 324.827 91.108 326.6 91.108C329.259 91.108 331.355 91.6662 332.89 92.7827C334.424 93.8906 335.272 95.4162 335.434 97.3594ZM346.348 84.8182L345.76 102.984H340.506L339.918 84.8182H346.348ZM343.126 111.371C342.214 111.371 341.43 111.047 340.774 110.399C340.126 109.751 339.803 108.967 339.803 108.047C339.803 107.143 340.126 106.372 340.774 105.733C341.43 105.085 342.214 104.761 343.126 104.761C344.004 104.761 344.776 105.085 345.44 105.733C346.114 106.372 346.45 107.143 346.45 108.047C346.45 108.661 346.293 109.219 345.977 109.722C345.67 110.224 345.266 110.625 344.763 110.923C344.268 111.222 343.723 111.371 343.126 111.371Z" fill="url(#paint1_linear_2304_218)"/>
<rect x="430.5" y="32.5" width="47" height="47" rx="23.5" fill="#FDFDFD"/>
<rect x="430.5" y="32.5" width="47" height="47" rx="23.5" stroke="#FDFDFD"/>
<path d="M455 70C451.14 70 448 66.86 448 63V47C448 44.2437 450.244 42 453 42C455.758 42 458 44.2437 458 47V61C458 62.6538 456.654 64 455 64C453.346 64 452 62.6538 452 61V49C452 48.4475 452.447 48 453 48C453.553 48 454 48.4475 454 49V61C454 61.55 454.45 62 455 62C455.55 62 456 61.55 456 61V47C456 45.3462 454.654 44 453 44C451.346 44 450 45.3462 450 47V63C450 65.7575 452.244 68 455 68C457.758 68 460 65.7575 460 63V49C460 48.4475 460.447 48 461 48C461.553 48 462 48.4475 462 49V63C462 66.8598 458.86 70 455 70Z" fill="black"/>
<defs>
<linearGradient id="paint0_linear_2304_218" x1="255" y1="0" x2="255" y2="532" gradientUnits="userSpaceOnUse">
<stop stop-color="#E7EEFF"/>
<stop offset="1" stop-color="#E7F3FF" stop-opacity="0"/>
</linearGradient>
<linearGradient id="paint1_linear_2304_218" x1="32" y1="-104.552" x2="361.716" y2="-90.2157" gradientUnits="userSpaceOnUse">
<stop offset="0.302189" stop-color="#220070"/>
<stop offset="0.874656" stop-color="#6E6CC8"/>
</linearGradient>
</defs>
</svg>
